<?xml version="1.0" encoding="UTF-8"?>
<svg id="Layer_3_xA0_Image" xmlns="http://www.w3.org/2000/svg" viewBox="0 0 54.28 54.26">
  <path d="M27.14,0c14.68-.15,27.35,12.47,27.15,27.5-.2,14.52-12.64,26.98-27.56,26.75C12.16,54.04-.31,41.53,0,26.55.31,12.1,12.61-.12,27.14,0ZM8,41.86c1.32-2.58,3.01-4.73,5.11-6.56,2.12-1.85,4.54-3.21,7.34-4.25-3.26-2.4-5.4-5.36-5.85-9.33-.45-4.01.89-7.42,3.69-10.23,4.9-4.91,12.09-5.06,17.28-.39,2.48,2.23,3.94,5.03,4.15,8.38.31,4.93-1.94,8.65-5.89,11.58,5.62,2.07,9.74,5.63,12.48,10.81,7.2-9.21,6.88-24.03-3.1-32.88C33.9.73,19.17.91,10.09,9.9.86,19.04,1.19,33.35,8,41.86ZM44.03,44.35c-2.47-6.62-9.27-11.65-17.59-11.37-7.96.27-14.2,5.59-16.18,11.44,9.35,9.44,25.37,8.77,33.77-.07ZM36.78,20.51c.07-5.48-4.02-9.74-9.47-9.8-5.32-.06-9.63,3.71-9.79,9.35-.15,5.21,3.41,9.86,9.58,9.9,5.97.03,9.54-4.33,9.68-9.45Z" fill="none"/>
</svg>