<?xml version="1.0" encoding="UTF-8"?>
<svg id="Layer_4_xA0_Image" xmlns="http://www.w3.org/2000/svg" viewBox="0 0 115.2 115.2">
  <path d="M57.66,0c12.72,0,25.43,0,38.15,0,11.12,0,19.39,8.29,19.39,19.41,0,25.47,0,50.95,0,76.42,0,11.05-8.29,19.36-19.32,19.36-25.51,0-51.03,0-76.54,0C8.3,115.2,0,106.89,0,95.85c0-25.51,0-51.03,0-76.54C0,8.33,8.32.01,19.27,0c12.8,0,25.59,0,38.39,0ZM93.26,43.69c-.75-.03-1.37-.06-2.08-.1v-6.09c-.42-.04-.76-.08-1.19-.12v-3.24c-.47-.07-.84-.12-1.25-.18v-1.79c-.43-.04-.82-.07-1.3-.11v-4.59c-.43-.06-.77-.11-1.23-.18v-3.55c-.18-.03-.37-.05-.55-.08-.44,1.14.01,2.46-.25,3.65-.36.05-.7.1-1.14.16v4.58c-.48.05-.86.08-1.32.13v1.83c-.43.03-.78.05-1.21.08v3.25c-.43.07-.77.12-1.18.18v6.1h-2v29.49c-.57.04-.99.08-1.5.12v5.3h-3.12v6.25h-2.94v4.34c-2.21,0-4.29,0-6.37,0-.47,0-1.06-.12-.78.7h44.17c.02-.15.04-.3.06-.45h-7.34v-4.7h-3.01v-6.16h-3.03v-5.3c-.55-.04-.98-.07-1.45-.11v-29.44ZM21.13,77.69c-2.13,3.29-4.2,6.49-6.25,9.66-.4.1-.73.18-1.05.25-.04.54-.08,1-.12,1.5-1.75,0-3.43.01-5.1,0-.58,0-1,.05-.61.78,1.53,0,3.05,0,4.57,0,13.04,0,26.08,0,39.12,0,.51,0,1.16.16.75-.85h-5.79c-.03-.56-.06-1.03-.09-1.47-.8-.13-7.3-9.22-7.12-9.89.32-.05.65-.09.99-.14v-2.81c-.34-.08-.64-.15-.98-.22.26-.57.48-1.03.76-1.64h-2.94c-.9-2.97-1.78-5.83-2.66-8.74.28-.11.54-.22.75-.3v-2.01c-.43-.06-.81-.11-1.23-.17-.48-3.82-.96-7.58-1.43-11.37.25-.15.49-.3.67-.41v-1.85c-.24-.31-.72.05-1.13-.39v-12.18c1.09-.81.49-4.33-1.6-7.26v-3.81c-.87-.24-.77.3-.79.8-.03,1.11.36,2.69-.22,3.24-2.07,1.97-1.8,4.33-1.52,6.72.47,4.19.15,8.39-.02,12.61-.37.07-.7.14-1.05.21v1.89c.28.14.57.28.87.43-.53,3.85-1.05,7.63-1.57,11.38-.52.06-.9.11-1.3.16v1.92c.15.37.7.02.74.55-.87,2.85-1.76,5.74-2.64,8.63h-2.73c.26.57.48,1.06.69,1.53-.3.32-.79-.06-.96.36v2.71c.31.05.59.1.99.17ZM52.42,58.44v10.18h1.96v-10.15h3.83v10.12c.71.1,1.29.22,2-.13v-10.01c.72-.06,1.29-.11,1.86-.16.04-.68.21-1.24-.14-1.74h-11.34c-.15.64-.21,1.18.04,1.77.54.04,1.08.07,1.79.12ZM52.03,85.23h1.91v-6.07c1.08,2.26,1.98,4.15,2.86,6,.45.15.82.24,1.16-.04v-12.06h-1.92v6.05c-1.06-2.23-1.97-4.13-2.89-6.05h-1.11v12.17ZM61.29,39.4v12.39h1.94v-4.81c.19-.05.38-.11.58-.16.86,1.49.68,3.38,1.34,4.99h1.89c-.36-1.87-.71-3.65-1.04-5.35,1.17-1.52,1.53-4.35.72-5.63-1.34-2.12-3.47-1.23-5.44-1.44ZM57.37,23.87v11.81h1.81v-5.86c1.05,2.19,1.93,4.05,2.83,5.93.38-.02.69-.03,1.05-.05v-11.79c-.63-.11-1.21-.21-1.87.1v5.7c-1.06-2.19-1.93-4.01-2.81-5.84h-1.01ZM60.28,45.65s0,0-.01,0c0-1.16.03-2.32,0-3.47-.06-1.78-1.14-2.82-2.86-2.84-1.83-.02-2.94.98-2.98,2.84-.05,2.32-.06,4.63,0,6.95.04,1.79,1.24,2.89,2.99,2.89,1.66,0,2.79-1.11,2.87-2.89.05-1.16,0-2.32,0-3.47ZM45.32,79.07c0,1.12-.01,2.24,0,3.36.02,1.86,1.1,3,2.82,3.02,1.78.02,2.92-1.04,2.96-2.88.05-2.24.04-4.48,0-6.72-.04-1.96-1.11-2.96-3-2.92-1.77.03-2.75,1.1-2.77,3.03-.01,1.04,0,2.08,0,3.12ZM46.98,35.72v-4.71c1.5,1.27,1.1,3.18,1.86,4.66h1.8c-.35-1.77-.68-3.44-.99-5.07,1.16-1.49,1.49-4.33.62-5.57-1.37-1.95-3.37-.98-5.13-1.25v11.93h1.85ZM75.96,35.72v-11.84h-1.86v4.75h-1.88v-4.73c-.68-.09-1.26-.22-1.78.05v11.73h1.85v-5.04c.68-.05,1.23-.19,1.89.16v4.91h1.78ZM70.44,76.94c0-.44.02-.76,0-1.07-.14-2.09-1.11-3.01-3.09-2.95-1.71.06-2.68,1.19-2.71,3.12-.02,1.76.88,2.95,2.4,3.68,1.68.8,1.66,2.1,1.24,3.67-2.48.46-1.33-1.65-1.83-2.48h-1.76c0,.81-.1,1.54.02,2.23.22,1.33,1.07,2.13,2.42,2.28,1.4.15,2.55-.3,3.12-1.68.86-2.11.01-4.44-1.99-5.56-.56-.31-1.16-.59-1.46-1.19-.3-.59-.41-1.26.02-1.81.41-.53.96-.42,1.57-.07.07.59.15,1.2.23,1.83h1.83ZM70.34,58.36h3.01c-.04-.7.18-1.28-.15-1.84h-4.86v12.04h5c.03-.66.18-1.21-.21-1.86h-2.8v-3.25c.68-.05,1.3-.1,1.93-.15.08-.66.26-1.24-.06-1.83-.6-.04-1.19-.09-1.85-.13v-2.98ZM67.78,27.58h1.78c.2-2.46-.67-3.76-2.53-3.87-2.03-.13-3.08,1.02-3.1,3.45-.02,1.99-.03,3.99.01,5.98.02,1.11.5,2.03,1.55,2.5,1.05.47,2.15.44,3.06-.29,1.26-1,1.14-2.42,1.02-3.87h-1.76c-.27.78.15,1.59-.34,2.27-.55.36-1.04.34-1.48-.13v-7.74c.66-.38,1.13-.39,1.64.13.04.43.08.93.14,1.57ZM59.05,85.23h4.95v-1.9h-2.99v-3.38h1.99v-1.91h-2v-3.14h3.01c.04-.71.2-1.3-.11-1.86h-4.85v12.19ZM51.58,35.7h4.86v-1.83h-2.93v-3.22c.69-.05,1.31-.1,1.95-.15v-1.82h-1.95v-2.95h2.89c.18-.69.22-1.26-.01-1.84h-4.81v11.81ZM50.72,46.58c.82-.05,1.47-.1,2.11-.14v-1.87c-.72-.04-1.35-.07-2.02-.1v-3.1h3.01c.15-.71.21-1.28-.03-1.86h-4.97v12.27h1.9v-5.2ZM39.56,23.87v11.81h1.82v-5.03c.75-.04,1.39-.08,2.04-.12v-1.76c-.68-.04-1.3-.07-1.96-.11v-2.98h2.91v-1.8h-4.82ZM62.7,68.6h4.98v-1.86h-3.14v-10.25c-.71,0-1.27-.18-1.84.18v11.93ZM42.52,56.52v12.05h4.99c-.09-.65.15-1.21-.28-1.85h-2.89v-10.2h-1.82ZM48.1,56.51v12.08c.67.05,1.25.21,1.79-.07v-12.01h-1.79Z" fill="#fefefe"/>
  <path d="M93.26,43.69v29.44c.47.04.89.07,1.45.11v5.3h3.03v6.16h3.01v4.7h7.34c-.02.15-.04.3-.06.45h-44.17c-.28-.82.31-.7.78-.7,2.08,0,4.16,0,6.37,0v-4.34h2.94v-6.25h3.12v-5.3c.51-.04.93-.07,1.5-.12v-29.49h2v-6.1c.42-.06.75-.12,1.18-.18v-3.25c.44-.03.78-.05,1.21-.08v-1.83c.46-.04.84-.08,1.32-.13v-4.58c.44-.06.77-.11,1.14-.16.26-1.19-.19-2.51.25-3.65.18.03.37.05.55.08v3.55c.46.07.8.11,1.23.18v4.59c.48.04.86.07,1.3.11v1.79c.41.06.78.11,1.25.18v3.24c.43.04.77.08,1.19.12v6.09c.71.03,1.32.06,2.08.1ZM89.26,44.44v29.13h-6.76v-29.12h-3.04v31.4h2.26v8.85h8.44v-8.95h2.26v-31.31h-3.16ZM88.47,72.73v-31.93h-5.1v31.92h1.4v-31.18c.15,0,.31,0,.46.01v31.18h1.61v-31.21c.17,0,.33,0,.5.01v31.26c.46-.02.77-.04,1.13-.05ZM99.93,85.63h-28.03v3.46h28.03v-3.46ZM77.92,76.58v8.11h2.91v-8.11h-2.91ZM90.96,76.59v8.07h2.9v-8.07h-2.9ZM89.23,37.4v-2.45h-6.62v2.48c.34-.02.64.17.85-.12.19-.4-.16-.85.25-1.15,1.02-.02.24.94.73,1.25h1.01c.03-.43.06-.8.09-1.18,1.25-.24.47.84.95,1.22.27-.01.64-.03,1-.04.06-.48.11-.86.16-1.24,1.14-.07.35.88.83,1.24h.75ZM77.07,79.38h-2.18v5.29h2.18v-5.29ZM96.96,84.69v-5.33h-2.18v5.33h2.18ZM83.33,39.84h5.16v-1.55h-5.16v1.55ZM89.32,38.33v5.26h1.07v-5.25c-.38-.19-.71-.2-1.07-.02ZM81.44,43.55c.4.09.77.27,1.03-.09v-5.21c-.39,0-.74-.16-1.03.15v5.15ZM85.23,28.23v3.85h1.36v-3.85h-1.36ZM83.82,34.01h4.23c-.03-.4-.05-.72-.08-1.04h-4.15v1.04ZM93.64,75.79c.36-.66.52-1.29-.09-2.27-.51,1.03-.53,1.66.09,2.27ZM78.59,73.41c-1.01.98-.78,1.68-.64,2.55,1.12-.52.6-1.32.64-2.55Z" fill="#020202"/>
  <path d="M21.13,77.69c-.39-.07-.68-.12-.99-.17v-2.71c.17-.42.65-.04.96-.36-.21-.47-.44-.97-.69-1.53h2.73c.89-2.89,1.77-5.78,2.64-8.63-.04-.52-.59-.18-.74-.55v-1.92c.4-.05.78-.1,1.3-.16.52-3.75,1.04-7.52,1.57-11.38-.31-.15-.6-.29-.87-.43v-1.89c.35-.07.68-.14,1.05-.21.17-4.22.49-8.42.02-12.61-.27-2.39-.55-4.75,1.52-6.72.58-.55.19-2.13.22-3.24.01-.5-.08-1.04.79-.8v3.81c2.1,2.92,2.7,6.45,1.6,7.26v12.18c.42.44.89.08,1.13.39v1.85c-.18.11-.43.26-.67.41.48,3.79.95,7.55,1.43,11.37.43.06.8.11,1.23.17v2.01c-.2.08-.47.19-.75.3.89,2.91,1.76,5.77,2.66,8.74h2.94c-.28.61-.5,1.07-.76,1.64.33.07.64.14.98.22v2.81c-.34.05-.67.1-.99.14-.18.67,6.32,9.76,7.12,9.89.03.45.05.91.09,1.47h5.79c.41,1.02-.24.85-.75.85-13.04,0-26.08,0-39.12,0-1.52,0-3.04,0-4.57,0-.39-.73.03-.79.61-.78,1.67.02,3.34,0,5.1,0,.04-.5.08-.96.12-1.5.31-.08.64-.16,1.05-.25,2.05-3.16,4.12-6.37,6.25-9.66ZM21.78,87.57c.03.56.06,1.02.08,1.46h16.75v-1.41c.27-.11.5-.21.73-.3-1.24-4.62-6.06-7.35-11.17-6.36-3.44.67-7.3,4.15-7.04,6.42.19.05.4.11.65.19ZM20.16,87.42c1.76-4.75,4.95-7.21,9.57-7.41,4.94-.21,8.13,2.01,10.59,7.37h4.33c-2.16-3.34-4.26-6.57-6.31-9.74h-16.25c-2.08,3.22-4.17,6.45-6.32,9.78h4.39ZM31.64,61.67h1.7c-.49-3.89-.96-7.71-1.44-11.51h-3.2c-.54,3.91-1.06,7.7-1.58,11.5h1.67c.33-3.75.65-7.42.97-11.09.22-.02.45-.04.67-.06.4,3.7.81,7.39,1.22,11.15ZM31.7,47.8c-.18-4.16-.36-8.22-.54-12.31-.65-.14-1.26-.2-2.08.11v12.2h2.62ZM20.95,76.75h18.61c.12-.47.19-.89-.05-1.3h-18.56v1.3ZM25.87,66.59c-.63,2.09-1.24,4.15-1.86,6.21h3.47c.31-2.09.61-4.12.92-6.21h-2.53ZM32.18,72.84c-.32-2.12-.63-4.18-.94-6.21h-2.05c-.31,2.09-.61,4.12-.91,6.21h3.91ZM36.46,72.84c-.67-2.17-1.29-4.21-1.91-6.21h-2.51c.32,2.13.62,4.16.93,6.21h3.49ZM22.06,74.58h16.48c.12-.29.24-.56.38-.9h-17.3c.16.34.29.61.43.9ZM34.35,65.77c-.25-.71-.44-1.25-.62-1.77h-7.04c-.18.59-.36,1.15-.55,1.77h8.21ZM31.76,34.57v-2.93h-3.07v2.93h3.07ZM25.74,62.67c0,.11,0,.23,0,.34h8.95c0-.11,0-.23,0-.34h-8.95ZM14.73,88.31c-.05.23-.1.47-.15.7,1.98.04,3.97.08,5.95.11.6,0,.63-.32.4-.8h-6.2ZM45.76,88.32h-6.28q.06.76.72.79c5.14.19,5.42.15,5.57-.79ZM30.25,55.65c-.06,0-.12,0-.19.01-.17,2.01-.33,4.02-.5,6.03.51.04.91.16,1.29-.15-.2-1.96-.4-3.93-.6-5.9ZM32.9,49.09c-1.16-.8-4.7-.66-5.19.22,1.73-.08,3.36.18,5.19-.22ZM28.92,30.58c.99.29,1.73.59,2.45-.24-.4-.45-.74-.84-1.12-1.27-.45.51-.81.92-1.32,1.52Z" fill="#020202"/>
  <path d="M52.42,58.44c-.71-.05-1.25-.09-1.79-.12-.25-.6-.19-1.14-.04-1.77h11.34c.34.51.18,1.06.14,1.74-.57.05-1.15.1-1.86.16v10.01c-.7.35-1.28.23-2,.13v-10.12h-3.83v10.15h-1.96v-10.18Z" fill="#e59c08"/>
  <path d="M52.03,85.23v-12.17h1.11c.92,1.93,1.83,3.83,2.89,6.05v-6.05h1.92v12.06c-.34.27-.71.19-1.16.04-.88-1.85-1.78-3.74-2.86-6v6.07h-1.91Z" fill="#e5074b"/>
  <path d="M61.29,39.4c1.97.22,4.1-.68,5.44,1.44.81,1.28.45,4.1-.72,5.63.33,1.69.68,3.48,1.04,5.35h-1.89c-.67-1.62-.49-3.5-1.34-4.99-.19.05-.38.11-.58.16v4.81h-1.94v-12.39ZM63.29,41.46v3.37c.65.07,1.2.2,1.76-.33v-2.61c-.45-.62-1.05-.63-1.76-.43Z" fill="#07c8a1"/>
  <path d="M57.37,23.87h1.01c.88,1.83,1.75,3.64,2.81,5.84v-5.7c.66-.3,1.23-.21,1.87-.1v11.79c-.36.02-.66.03-1.05.05-.9-1.88-1.78-3.73-2.83-5.93v5.86h-1.81v-11.81Z" fill="#0587e4"/>
  <path d="M60.28,45.65c0,1.16.04,2.32,0,3.47-.08,1.77-1.21,2.88-2.87,2.89-1.75,0-2.95-1.1-2.99-2.89-.05-2.32-.05-4.63,0-6.95.04-1.86,1.14-2.86,2.98-2.84,1.73.02,2.8,1.06,2.86,2.84.04,1.16,0,2.32,0,3.47,0,0,0,0,.01,0ZM58.17,49.65v-8.08c-.63-.35-1.11-.38-1.66.04v8.11c.63.38,1.1.37,1.66-.06Z" fill="#09c7a1"/>
  <path d="M45.32,79.07c0-1.04,0-2.08,0-3.12.02-1.93,1.01-3,2.77-3.03,1.89-.03,2.96.96,3,2.92.05,2.24.06,4.48,0,6.72-.04,1.84-1.19,2.9-2.96,2.88-1.73-.02-2.8-1.15-2.82-3.02-.01-1.12,0-2.24,0-3.36ZM49.04,75.06c-.97-.33-1.76-.43-1.78.8-.05,2.38-.01,4.77-.01,7.09.61.71,1.18.76,1.8.19v-8.08Z" fill="#e60448"/>
  <path d="M46.98,35.72h-1.85v-11.93c1.76.26,3.75-.71,5.13,1.25.87,1.24.55,4.08-.62,5.57.32,1.62.65,3.3.99,5.07-.65,0-1.22,0-1.8,0-.76-1.48-.36-3.39-1.85-4.66v4.71ZM46.99,25.77v3.23h1.55c.37-1.12.48-2.16-.08-3.23h-1.47Z" fill="#0587e5"/>
  <path d="M75.96,35.72h-1.78v-4.91c-.66-.36-1.21-.22-1.89-.16v5.04h-1.85v-11.73c.52-.27,1.09-.14,1.78-.05v4.73h1.88v-4.75h1.86v11.84Z" fill="#0784e6"/>
  <path d="M70.44,76.94h-1.83c-.08-.63-.15-1.24-.23-1.83-.6-.35-1.16-.46-1.57.07-.43.55-.31,1.22-.02,1.81.3.6.9.88,1.46,1.19,2,1.12,2.85,3.45,1.99,5.56-.56,1.38-1.72,1.83-3.12,1.68-1.35-.15-2.19-.95-2.42-2.28-.12-.69-.02-1.42-.02-2.23h1.76c.5.83-.65,2.93,1.83,2.48.42-1.57.44-2.86-1.24-3.67-1.52-.73-2.42-1.91-2.4-3.68.03-1.94,1-3.06,2.71-3.12,1.98-.07,2.95.85,3.09,2.95.02.31,0,.63,0,1.07Z" fill="#e5044a"/>
  <path d="M70.34,58.36v2.98c.66.05,1.25.09,1.85.13.32.59.14,1.17.06,1.83-.63.05-1.25.1-1.93.15v3.25h2.8c.39.65.24,1.2.21,1.86h-5v-12.04h4.86c.34.55.12,1.13.15,1.84h-3.01Z" fill="#e49e11"/>
  <path d="M67.78,27.58c-.06-.63-.1-1.14-.14-1.57-.51-.52-.99-.5-1.64-.13v7.74c.44.47.93.49,1.48.13.49-.68.07-1.49.34-2.27h1.76c.12,1.45.25,2.87-1.02,3.87-.92.73-2.01.75-3.06.29-1.05-.47-1.53-1.39-1.55-2.5-.04-1.99-.03-3.99-.01-5.98.02-2.43,1.06-3.57,3.1-3.45,1.86.12,2.73,1.41,2.53,3.87h-1.78Z" fill="#0687e7"/>
  <path d="M59.05,85.23v-12.19h4.85c.31.56.15,1.14.11,1.86h-3.01v3.14h2v1.91h-1.99v3.38h2.99v1.9h-4.95Z" fill="#e60449"/>
  <path d="M51.58,35.7v-11.81h4.81c.24.58.2,1.15.01,1.84h-2.89v2.95h1.95v1.82c-.64.05-1.26.09-1.95.15v3.22h2.93v1.83h-4.86Z" fill="#0786e4"/>
  <path d="M50.72,46.58v5.2h-1.9v-12.27h4.97c.23.58.18,1.15.03,1.86h-3.01v3.1c.68.03,1.31.07,2.02.1v1.87c-.64.04-1.29.09-2.11.14Z" fill="#0ac4a4"/>
  <path d="M39.56,23.87h4.82v1.8h-2.91v2.98c.66.04,1.28.07,1.96.11v1.76c-.65.04-1.3.07-2.04.12v5.03h-1.82v-11.81Z" fill="#0b85e3"/>
  <path d="M62.7,68.6v-11.93c.57-.36,1.13-.18,1.84-.18v10.25h3.14v1.86h-4.98Z" fill="#e89c08"/>
  <path d="M42.52,56.52h1.82v10.2h2.89c.43.64.19,1.2.28,1.85h-4.99v-12.05Z" fill="#e59e0a"/>
  <path d="M48.1,56.51h1.79v12.01c-.54.28-1.12.12-1.79.07v-12.08Z" fill="#e69a0a"/>
  <path d="M89.26,44.44h3.16v31.31h-2.26v8.95h-8.44v-8.85h-2.26v-31.4h3.04v29.12h6.76v-29.13ZM85.91,75.77l-.15.13v7.41l.15-.05v-7.49ZM87.86,83.25c.81-.16,1.06-2.73.79-6.8-.04-.58-.18-.8-.79-.57v7.37ZM83.74,75.82c-.65.18-.67.18-.67.65,0,2.29,0,4.58,0,6.86.23-.02.45-.03.68-.05v-7.46Z" fill="#fcfcfd"/>
  <path d="M88.47,72.73c-.36.02-.67.03-1.13.05v-31.26c-.17,0-.33,0-.5-.01v31.21h-1.61v-31.18c-.15,0-.31,0-.46-.01v31.18h-1.4v-31.92h5.1v31.93Z" fill="#fafafb"/>
  <path d="M99.93,85.63v3.46h-28.03v-3.46h28.03Z" fill="#fdfbfd"/>
  <path d="M77.92,76.58h2.91v8.11h-2.91v-8.11Z" fill="#fcfbfc"/>
  <path d="M90.96,76.59h2.9v8.07h-2.9v-8.07Z" fill="#fdfcfd"/>
  <path d="M89.23,37.4h-.75c-.48-.36.31-1.31-.83-1.24-.05.38-.1.76-.16,1.24-.35.02-.73.03-1,.04-.48-.38.31-1.46-.95-1.22-.03.38-.06.75-.09,1.18h-1.01c-.49-.31.29-1.27-.73-1.25-.41.31-.07.76-.25,1.15-.21.3-.51.11-.85.12v-2.48h6.62v2.45Z" fill="#f5f5f5"/>
  <path d="M77.07,79.38v5.29h-2.18v-5.29h2.18Z" fill="#fcfcfc"/>
  <path d="M96.96,84.69h-2.18v-5.33h2.18v5.33Z" fill="#fdfcfd"/>
  <path d="M83.33,39.84v-1.55h5.16v1.55h-5.16Z" fill="#f7f7f7"/>
  <path d="M89.32,38.33c.37-.18.7-.18,1.07.02v5.25h-1.07v-5.26Z" fill="#e9e9e9"/>
  <path d="M81.44,43.55v-5.15c.28-.32.63-.14,1.03-.15v5.21c-.26.35-.63.18-1.03.09Z" fill="#fafafa"/>
  <path d="M85.23,28.23h1.36v3.85h-1.36v-3.85Z" fill="#f4f4f4"/>
  <path d="M83.82,34.01v-1.04h4.15c.02.32.05.65.08,1.04h-4.23Z" fill="#fbfbfb"/>
  <path d="M93.64,75.79c-.62-.6-.6-1.24-.09-2.27.61.97.46,1.61.09,2.27Z" fill="#c0bec0"/>
  <path d="M78.59,73.41c-.04,1.23.48,2.03-.64,2.55-.14-.87-.37-1.57.64-2.55Z" fill="#c2c0c2"/>
  <path d="M21.78,87.57c-.25-.07-.46-.13-.65-.19-.26-2.27,3.6-5.76,7.04-6.42,5.11-.99,9.93,1.74,11.17,6.36-.23.09-.46.19-.73.3v1.41h-16.75c-.02-.44-.05-.91-.08-1.46Z" fill="#fefefe"/>
  <path d="M20.16,87.42h-4.39c2.15-3.33,4.24-6.56,6.32-9.78h16.25c2.05,3.17,4.15,6.4,6.31,9.74h-4.33c-2.47-5.35-5.66-7.58-10.59-7.37-4.62.2-7.81,2.65-9.57,7.41Z" fill="#fcfcfc"/>
  <path d="M31.64,61.67c-.41-3.76-.81-7.46-1.22-11.15-.22.02-.45.04-.67.06-.32,3.67-.64,7.34-.97,11.09h-1.67c.52-3.8,1.04-7.59,1.58-11.5h3.2c.48,3.8.95,7.62,1.44,11.51h-1.7Z" fill="#fafafa"/>
  <path d="M31.7,47.8h-2.62v-12.2c.82-.31,1.43-.25,2.08-.11.18,4.09.36,8.15.54,12.31Z" fill="#fbfbfb"/>
  <path d="M20.95,76.75v-1.3h18.56c.24.42.17.83.05,1.3h-18.61Z" fill="#f4f4f4"/>
  <path d="M25.87,66.59h2.53c-.31,2.09-.61,4.12-.92,6.21h-3.47c.62-2.06,1.23-4.12,1.86-6.21Z" fill="#fafafa"/>
  <path d="M32.18,72.84h-3.91c.31-2.09.6-4.12.91-6.21h2.05c.31,2.04.62,4.09.94,6.21Z" fill="#f9f9f9"/>
  <path d="M36.46,72.84h-3.49c-.31-2.05-.61-4.08-.93-6.21h2.51c.61,2,1.24,4.04,1.91,6.21Z" fill="#fafafa"/>
  <path d="M22.06,74.58c-.14-.28-.27-.56-.43-.9h17.3c-.14.33-.26.61-.38.9h-16.48Z" fill="#f6f6f6"/>
  <path d="M34.35,65.77h-8.21c.19-.62.37-1.18.55-1.77h7.04c.18.52.37,1.06.62,1.77Z" fill="#f6f6f6"/>
  <path d="M31.76,34.57h-3.07v-2.93h3.07v2.93Z" fill="#f3f3f3"/>
  <path d="M25.74,62.67h8.95c0,.11,0,.23,0,.34h-8.95c0-.11,0-.23,0-.34Z" fill="#f4f4f4"/>
  <path d="M14.73,88.31h6.2c.22.48.2.81-.4.8-1.98-.03-3.97-.07-5.95-.11.05-.23.1-.47.15-.7Z" fill="#f9f9f9"/>
  <path d="M45.76,88.32c-.15.94-.43.98-5.57.79q-.66-.02-.72-.79h6.28Z" fill="#f8f8f8"/>
  <path d="M30.25,55.65c.2,1.97.4,3.94.6,5.9-.38.31-.78.19-1.29.15.17-2.02.33-4.03.5-6.03.06,0,.12,0,.19-.01Z" fill="#eaeaea"/>
  <path d="M32.9,49.09c-1.83.4-3.46.14-5.19.22.5-.88,4.03-1.02,5.19-.22Z" fill="#d8d8d8"/>
  <path d="M28.92,30.58c.52-.59.87-1,1.32-1.52.38.43.73.82,1.12,1.27-.71.83-1.46.53-2.45.24Z" fill="#e2e2e2"/>
  <path d="M63.29,41.46c.71-.21,1.3-.19,1.76.43v2.61c-.56.53-1.11.4-1.76.33v-3.37Z" fill="#eef9fa"/>
  <path d="M58.17,49.65c-.56.43-1.04.44-1.66.06v-8.11c.55-.41,1.03-.39,1.66-.04v8.08Z" fill="#f4fdfd"/>
  <path d="M49.04,75.06v8.08c-.62.57-1.19.52-1.8-.19,0-2.32-.03-4.7.01-7.09.03-1.23.82-1.13,1.78-.8Z" fill="#fcfbf9"/>
  <path d="M46.99,25.77h1.47c.56,1.07.45,2.11.08,3.23h-1.55v-3.23Z" fill="#eef7f9"/>
  <path d="M85.91,75.77v7.49l-.15.05v-7.41l.15-.13Z" fill="#0d0b0d"/>
  <path d="M87.86,83.25v-7.37c.62-.24.76-.02.79.57.27,4.07.02,6.65-.79,6.8Z" fill="#0f0d0f"/>
  <path d="M83.74,75.82v7.46c-.23.02-.45.03-.68.05,0-2.29,0-4.58,0-6.86,0-.47.03-.47.67-.65Z" fill="#0c0c0c"/>
</svg>